<?xml version="1.0" encoding="iso-8859-1"?>
<!-- Uploaded to: SVG Repo, www.svgrepo.com, Generator: SVG Repo Mixer Tools -->
<!DOCTYPE svg PUBLIC "-//W3C//DTD SVG 1.1//EN" "http://www.w3.org/Graphics/SVG/1.1/DTD/svg11.dtd">
<svg fill="#333" version="1.1" id="Capa_1" xmlns="http://www.w3.org/2000/svg" xmlns:xlink="http://www.w3.org/1999/xlink" 
	 width="800px" height="800px" viewBox="0 0 41.458 41.458"
	 xml:space="preserve">
<g>
	<path d="M20.729,0C9.281,0,0,9.281,0,20.729c0,11.449,9.281,20.729,20.729,20.729c11.448,0,20.729-9.28,20.729-20.729
		C41.458,9.281,32.178,0,20.729,0z M23.675,23.729c-0.759,0.746-1.798,1.209-2.946,1.209c-2.324,0-4.208-1.885-4.208-4.208
		c0-1.148,0.462-2.187,1.208-2.946c0.764-0.778,1.824-1.262,3-1.262c1.148,0,2.187,0.462,2.946,1.208
		c0.019,0.018,0.036,0.036,0.054,0.054c0.746,0.759,1.209,1.798,1.209,2.946C24.938,21.904,24.452,22.965,23.675,23.729z
		 M17.729,9.062c0-1.657,1.343-3,3-3c1.658,0,3,1.343,3,3v6.236c-0.89-0.494-1.912-0.777-3-0.777s-2.11,0.283-3,0.777V9.062z
		 M36.062,23.729H26.16c0.494-0.89,0.777-1.912,0.777-3c0-1.088-0.283-2.11-0.777-3h9.902c1.656,0,3,1.343,3,3
		C39.062,22.387,37.719,23.729,36.062,23.729z"/>
</g>
</svg>